<svg xmlns="http://www.w3.org/2000/svg" version="1.1" xmlns:xlink="http://www.w3.org/1999/xlink" xmlns:svgjs="http://svgjs.dev/svgjs" width="1500" height="1500" viewBox="0 0 1500 1500"><rect width="1500" height="1500" fill="#ffffff"></rect><g transform="matrix(0.6666666666666666,0,0,0.6666666666666666,249.3945038246634,565.5025546822989)"><svg viewBox="0 0 396 146" data-background-color="#ffffff" preserveAspectRatio="xMidYMid meet" height="553" width="1500" xmlns="http://www.w3.org/2000/svg" xmlns:xlink="http://www.w3.org/1999/xlink"><g id="tight-bounds" transform="matrix(1,0,0,1,0.24004929435997724,0.06499190701003954)"><svg viewBox="0 0 395.5199999999999 145.87001618597992" height="145.87001618597992" width="395.5199999999999"><g><svg viewBox="0 0 395.5199999999999 145.87001618597992" height="145.87001618597992" width="395.5199999999999"><g transform="matrix(1,0,0,1,0,92.39887999367025)"><svg viewBox="0 0 395.5199999999999 53.47113619230966" height="53.47113619230966" width="395.5199999999999"><g id="textblocktransform"><svg viewBox="0 0 395.5199999999999 53.47113619230966" height="53.47113619230966" width="395.5199999999999" id="textblock"><g><svg viewBox="0 0 395.5199999999999 53.47113619230966" height="53.47113619230966" width="395.5199999999999"><g transform="matrix(1,0,0,1,0,0)"><svg width="395.5199999999999" viewBox="-0.08651016357171436 -28.24315578051635 333.0428013844638 45.02469806005727" height="53.47113619230966" data-palette-color="#e1322b"><path d="M20.058 14.834v0l-15.841 1.945c-0.126 0.015-0.198-0.056-0.218-0.215v0l-4.083-33.653c-0.016-0.132 0.038-0.206 0.164-0.222v0l15.742-1.933c0.126-0.015 0.198 0.056 0.218 0.215v0l0.673 5.479c0.015 0.126-0.04 0.196-0.165 0.212v0l-10.045 1.233 0.941 7.663 10.045-1.234c0.126-0.015 0.196 0.04 0.211 0.166v0l0.731 5.542c0.015 0.126-0.04 0.196-0.165 0.212v0l-10.094 1.239 1.052 8.566 10.094-1.24c0.126-0.015 0.198 0.056 0.218 0.215v0l0.687 5.598c0.015 0.126-0.04 0.196-0.165 0.212zM30.043 13.782v0l-5.56 0.58c-0.126 0.013-0.197-0.06-0.214-0.219v0l-3.42-33.727c-0.014-0.133 0.042-0.205 0.168-0.219v0l5.988-0.625c0.133-0.014 0.252 0.041 0.358 0.164v0l5.161 5.996 3.781-6.93c0.079-0.142 0.191-0.221 0.337-0.236v0l6.017-0.628c0.146-0.015 0.226 0.043 0.24 0.176v0l3.609 33.707c0.017 0.159-0.038 0.245-0.164 0.259v0l-5.56 0.58c-0.126 0.013-0.197-0.06-0.213-0.219v0l-2.665-25.038-4.371 8.017-5.883-6.947 2.565 25.049c0.017 0.159-0.041 0.246-0.174 0.26zM56.053 11.263v0l-5.571 0.467c-0.126 0.011-0.196-0.064-0.209-0.223v0l-2.735-33.79c-0.011-0.133 0.046-0.205 0.172-0.215v0l5.999-0.503c0.133-0.011 0.251 0.046 0.356 0.17v0l5.038 6.1 3.92-6.851c0.082-0.141 0.196-0.217 0.342-0.23v0l6.029-0.506c0.146-0.012 0.225 0.048 0.236 0.181v0l2.925 33.774c0.013 0.159-0.043 0.244-0.17 0.255v0l-5.57 0.467c-0.126 0.011-0.196-0.064-0.209-0.223v0l-2.156-25.087-4.533 7.926-5.741-7.064 2.056 25.096c0.013 0.159-0.046 0.245-0.179 0.256zM74.686 9.503v0l3.923-34.224c0.025-0.135 0.1-0.207 0.227-0.215v0l7.145-0.462c0.126-0.008 0.211 0.053 0.252 0.185v0l8.052 33.45c0.024 0.159-0.038 0.243-0.184 0.253v0l-5.459 0.352c-0.16 0.01-0.251-0.064-0.275-0.223v0l-0.762-3.578-6.706 0.433-0.295 3.647c-0.01 0.161-0.084 0.246-0.224 0.254v0l-5.489 0.355c-0.126 0.008-0.195-0.068-0.205-0.227zM86.278-0.154l-2.909-13.701-0.407-1.808-0.102 1.84-1.322 13.975zM115.493 7.497v0l-5.586 0.209c-0.127 0.005-0.193-0.073-0.199-0.233v0l-1.17-33.879c-0.005-0.133 0.056-0.202 0.182-0.207v0l6.016-0.226c0.133-0.005 0.249 0.057 0.347 0.187v0l4.751 6.327 4.233-6.663c0.088-0.137 0.206-0.208 0.352-0.214v0l6.046-0.226c0.147-0.005 0.222 0.058 0.227 0.191v0l1.36 33.873c0.006 0.16-0.054 0.242-0.181 0.247v0l-5.586 0.209c-0.127 0.005-0.193-0.073-0.199-0.232v0l-0.993-25.161-4.895 7.709-5.408-7.323 0.893 25.165c0.006 0.16-0.058 0.242-0.19 0.247zM144.99 7.123v0c-1.746 0.032-3.368-0.388-4.864-1.261v0c-1.476-0.873-2.675-2.051-3.595-3.535-0.921-1.483-1.397-3.125-1.43-4.925v0l-0.237-15.638c-0.034-1.833 0.38-3.488 1.24-4.964v0c0.839-1.496 1.988-2.7 3.444-3.613 1.463-0.92 3.062-1.396 4.795-1.428v0c1.8-0.033 3.424 0.377 4.873 1.231v0c1.463 0.86 2.644 2.025 3.545 3.495 0.9 1.47 1.367 3.112 1.4 4.926v0l0.336 15.636c0.033 1.8-0.37 3.454-1.209 4.963v0c-0.859 1.523-2.01 2.747-3.453 3.674-1.443 0.927-3.058 1.406-4.845 1.439zM144.881 1.174v0c1-0.018 1.862-0.441 2.587-1.268 0.718-0.82 1.068-1.737 1.05-2.749v0l-0.326-15.637c-0.02-1.093-0.384-2.01-1.09-2.751-0.707-0.741-1.59-1.101-2.651-1.081v0c-1.006 0.018-1.866 0.404-2.579 1.157-0.706 0.746-1.049 1.683-1.029 2.809v0l0.287 15.638c0.02 1.073 0.397 1.993 1.13 2.76 0.741 0.767 1.614 1.141 2.621 1.122zM163.468 6.453v0l-4.94 0.007c-0.26 0-0.39-0.113-0.39-0.339v0l-0.095-33.61c0-0.26 0.129-0.39 0.389-0.391v0l4.46-0.006 8.356 19.439-0.265-19.06c0-0.26 0.146-0.39 0.439-0.39v0l4.89-0.007c0.193 0 0.29 0.13 0.291 0.39v0l0.085 33.66c0 0.193-0.08 0.29-0.24 0.29v0l-4.33 0.006-8.584-18.159 0.384 17.78c0 0.26-0.149 0.39-0.45 0.39zM191.202 6.673v0l-5.559-0.091c-0.147-0.002-0.219-0.084-0.216-0.244v0l0.463-28.146-6.409-0.106c-0.16-0.003-0.239-0.084-0.236-0.243v0l0.14-5.509c0.002-0.133 0.067-0.199 0.194-0.197v0l18.747 0.309c0.173 0.003 0.259 0.071 0.257 0.204v0l-0.091 5.509c-0.003 0.16-0.067 0.239-0.194 0.237v0l-6.479-0.107-0.423 28.147c-0.003 0.16-0.067 0.239-0.194 0.237zM209.178 7.138v0l-8.846-0.28c-0.127-0.004-0.187-0.086-0.182-0.246v0l1.175-33.88c0.004-0.133 0.07-0.198 0.196-0.194v0l9.485 0.301c1.852 0.059 3.517 0.562 4.995 1.509v0c1.451 0.946 2.576 2.176 3.375 3.689 0.806 1.513 1.181 3.136 1.126 4.868v0c-0.045 1.413-0.406 2.718-1.085 3.918-0.685 1.206-1.48 2.171-2.383 2.896v0c0.916 0.976 1.621 2.099 2.114 3.368 0.487 1.269 0.708 2.594 0.665 3.973v0c-0.061 1.912-0.572 3.64-1.535 5.184v0c-0.983 1.543-2.269 2.759-3.858 3.65-1.582 0.89-3.33 1.305-5.242 1.244zM210.821-21.304v0l-3.749-0.119-0.246 7.756 3.748 0.119c1.146 0.036 2.085-0.341 2.818-1.131 0.732-0.791 1.113-1.659 1.143-2.605v0c0.033-1.039-0.318-1.961-1.053-2.765-0.728-0.803-1.615-1.222-2.661-1.255zM209.646-7.604v0l-3.009-0.096-0.327 8.724 3.059 0.097c1.186 0.038 2.219-0.366 3.1-1.212 0.88-0.839 1.339-1.852 1.377-3.038v0c0.038-1.186-0.356-2.219-1.183-3.099-0.826-0.88-1.832-1.339-3.017-1.376zM220.098 7.266v0l7.757-33.563c0.04-0.132 0.123-0.194 0.249-0.188v0l7.152 0.347c0.127 0.006 0.203 0.077 0.23 0.212v0l4.229 34.145c0.006 0.16-0.065 0.237-0.212 0.23v0l-5.463-0.265c-0.16-0.008-0.242-0.092-0.248-0.253v0l-0.354-3.641-6.712-0.326-0.705 3.59c-0.028 0.159-0.112 0.235-0.251 0.228v0l-5.494-0.267c-0.127-0.006-0.186-0.089-0.178-0.249zM232.705-1.022l-1.346-13.942-0.201-1.842-0.308 1.818-2.89 13.736zM248.265 9.01v0l-5.578-0.362c-0.126-0.008-0.184-0.092-0.174-0.252v0l2.296-33.823c0.009-0.133 0.076-0.195 0.202-0.187v0l9.959 0.647c1.776 0.115 3.381 0.654 4.816 1.615v0c1.434 0.968 2.549 2.21 3.345 3.725 0.797 1.515 1.135 3.194 1.016 5.036v0c-0.078 1.204-0.335 2.283-0.771 3.237v0c-0.429 0.954-0.912 1.751-1.448 2.391-0.529 0.64-1.004 1.107-1.424 1.401v0c1.648 2.091 2.386 4.467 2.213 7.128v0l-0.606 10.102c-0.01 0.16-0.095 0.234-0.255 0.224v0l-5.578-0.362c-0.126-0.008-0.187-0.059-0.18-0.152v0l0.662-10.199c0.077-1.184-0.276-2.239-1.057-3.165-0.775-0.919-1.772-1.418-2.99-1.497v0l-3.243-0.21-0.99 14.476c-0.01 0.16-0.082 0.235-0.215 0.227zM254.587-19.07v0l-4.231-0.274-0.502 7.743 4.231 0.275c1.005 0.065 1.931-0.255 2.778-0.962 0.84-0.7 1.296-1.596 1.367-2.687v0c0.067-1.038-0.26-1.964-0.982-2.78-0.716-0.808-1.603-1.246-2.661-1.315zM274.925 10.97v0l-8.82-0.733c-0.126-0.01-0.183-0.095-0.169-0.255v0l2.905-33.775c0.011-0.133 0.08-0.194 0.206-0.184v0l9.458 0.786c1.847 0.153 3.484 0.741 4.911 1.762v0c1.4 1.019 2.461 2.305 3.181 3.857 0.727 1.552 1.019 3.192 0.876 4.919v0c-0.117 1.408-0.545 2.694-1.283 3.857-0.746 1.169-1.589 2.092-2.528 2.771v0c0.865 1.022 1.511 2.179 1.939 3.472 0.421 1.293 0.575 2.627 0.46 4.002v0c-0.158 1.907-0.758 3.606-1.798 5.099v0c-1.06 1.491-2.407 2.64-4.039 3.447-1.626 0.808-3.392 1.133-5.299 0.975zM278.02-17.351v0l-3.737-0.311-0.643 7.734 3.737 0.31c1.143 0.095 2.1-0.234 2.872-0.986 0.772-0.752 1.197-1.6 1.275-2.543v0c0.086-1.036-0.217-1.975-0.91-2.815-0.686-0.84-1.551-1.303-2.594-1.389zM276.146-3.73v0l-3-0.249-0.772 8.696 3.049 0.254c1.183 0.098 2.235-0.253 3.158-1.053 0.922-0.793 1.432-1.781 1.531-2.963v0c0.098-1.183-0.243-2.234-1.023-3.156-0.78-0.921-1.761-1.431-2.943-1.529zM297.46 13.544v0c-1.738-0.175-3.298-0.784-4.68-1.828v0c-1.363-1.042-2.413-2.354-3.152-3.936-0.739-1.582-1.018-3.268-0.837-5.059v0l1.616-15.556c0.184-1.824 0.79-3.418 1.818-4.782v0c1.011-1.386 2.293-2.446 3.848-3.181 1.562-0.741 3.205-1.024 4.93-0.85v0c1.791 0.18 3.355 0.78 4.693 1.799v0c1.351 1.027 2.386 2.324 3.106 3.89 0.72 1.567 0.989 3.252 0.808 5.057v0l-1.517 15.566c-0.18 1.791-0.776 3.386-1.788 4.785v0c-1.033 1.41-2.321 2.49-3.864 3.239-1.543 0.749-3.203 1.034-4.981 0.856zM298.056 7.624v0c0.995 0.1 1.901-0.217 2.719-0.953 0.81-0.729 1.266-1.598 1.368-2.606v0l1.527-15.565c0.11-1.088-0.143-2.041-0.757-2.861-0.614-0.819-1.449-1.282-2.504-1.387v0c-1.002-0.101-1.901 0.18-2.698 0.844-0.79 0.658-1.241 1.547-1.354 2.668v0l-1.567 15.561c-0.108 1.068 0.158 2.026 0.797 2.874 0.645 0.849 1.468 1.324 2.469 1.425zM315.888 15.066v0l-4.906-0.578c-0.258-0.03-0.374-0.158-0.348-0.383v0l3.884-33.385c0.03-0.258 0.175-0.372 0.433-0.342v0l4.429 0.522 5.997 20.291 1.992-18.957c0.03-0.258 0.191-0.37 0.482-0.336v0l4.857 0.572c0.192 0.023 0.273 0.163 0.242 0.422v0l-3.899 33.433c-0.023 0.192-0.113 0.279-0.272 0.26v0l-4.301-0.507-6.375-19.047-1.723 17.7c-0.03 0.258-0.195 0.37-0.492 0.335z" opacity="1" transform="matrix(1,0,0,1,0,0)" fill="#000000" class="wordmark-text-0" data-fill-palette-color="primary" id="text-0"></path></svg></g></svg></g></svg></g></svg></g><g transform="matrix(1,0,0,1,170.03060435494848,0)"><svg viewBox="0 0 55.45879129010297 76.99950553964975" height="76.99950553964975" width="55.45879129010297"><g><svg xmlns="http://www.w3.org/2000/svg" xml:space="preserve" viewBox="11.799999999999997 9.3 81.10000000000001 112.60000000000001" x="0" y="0" height="76.99950553964975" width="55.45879129010297" class="icon-icon-0" data-fill-palette-color="accent" id="icon-0"><path d="M71 121.4c-4 0-7.2-1.5-8.9-2.9l-0.3-0.3L50.2 106l3.8-3.6 11.4 12.1c0.9 0.6 6.3 4 12.9-1 2-1.5 3.1-3.2 3.3-5 0.3-3.2-2.1-6.1-2.2-6.1l-13.6-14 3.8-3.7 13.6 14.1c0.2 0.3 4.1 4.7 3.5 10.2q-0.45 5.1-5.4 8.7c-3.5 2.8-7.1 3.7-10.3 3.7" fill="#000000" data-fill-palette-color="accent"></path><path d="M72 109.4c-0.5 0-0.9-0.2-1.3-0.5l-12.4-13c-0.7-0.7-0.6-1.8 0.1-2.5s1.8-0.6 2.5 0.1l12.4 13c0.7 0.7 0.6 1.8-0.1 2.5-0.4 0.2-0.8 0.4-1.2 0.4M30.1 109.7c-0.4 0-0.9-0.2-1.2-0.5-0.7-0.7-0.7-1.8 0-2.5L67.8 67c1.8-1.6 6.5-6 7.7-7.8 1.7-2.5 1.8-6 1.8-9.4C77.2 36.1 66.1 25 52.4 25S27.6 36.1 27.6 49.8c0 5.3 1 9.2 3 12 3 4.1 14.2 14.9 14.3 15 0.7 0.7 0.7 1.8 0 2.5s-1.8 0.7-2.5 0C42 78.8 31 68.2 27.8 63.9c-2.5-3.4-3.7-8-3.7-14 0-15.6 12.7-28.3 28.3-28.3s28.3 12.7 28.3 28.3c0 3.9-0.2 8-2.4 11.3-1.6 2.5-7.5 7.8-8.2 8.4l-38.8 39.6c-0.3 0.3-0.8 0.5-1.2 0.5" fill="#000000" data-fill-palette-color="accent"></path><path d="M30.6 121.9c-3 0-6.2-0.9-9.5-3.4-3.2-2.5-5.1-5.4-5.5-8.8-0.7-5.5 2.8-10 2.9-10.2l0.2-0.3 13.1-12.7-5-5.3c-9.5-7.7-15-19.2-15-31.5C11.9 27.5 30 9.3 52.4 9.3s40.5 18.2 40.5 40.5c0 13.6-5.3 25-14.9 32.2l-36.6 35.7c-2.1 2-6.1 4.2-10.8 4.2m-8-19c-0.4 0.6-2.1 3.3-1.7 6.2 0.3 1.9 1.4 3.7 3.5 5.3 7 5.3 13.2-0.2 13.4-0.4l37-36c8.4-6.2 12.9-15.9 12.9-28.1 0-19.4-15.8-35.3-35.3-35.3S17.1 30.4 17.1 49.8c0 10.7 4.8 20.8 13.2 27.5l0.3 0.2 5.1 5.4 12.9-12.5-10.6-11c-1.9-2.9-3-6.2-3-9.7 0-9.5 7.8-17.3 17.3-17.3s17.3 7.8 17.3 17.3c0 3.5-1 6.8-3 9.7l-0.3 0.4-10.6 11z m19.7-46.5l10.1 10.4 10.1-10.4c1.3-1.9 1.9-4.2 1.9-6.5 0-6.6-5.4-12-12-12s-12 5.4-12 12c0 2.3 0.6 4.5 1.9 6.5" fill="#000000" data-fill-palette-color="accent"></path></svg></g></svg></g><g></g></svg></g><defs></defs></svg><rect width="395.5199999999999" height="145.87001618597992" fill="none" stroke="none" visibility="hidden"></rect></g></svg></g></svg>