<svg xmlns="http://www.w3.org/2000/svg" version="1.1" xmlns:xlink="http://www.w3.org/1999/xlink" xmlns:svgjs="http://svgjs.dev/svgjs" width="128" height="128" viewBox="0 0 128 128"><g transform="matrix(0.5852272727272727,0,0,0.5852272727272727,26.420640288123337,12.760752631578946)"><svg viewBox="0 0 69 95" data-background-color="#ffffff" preserveAspectRatio="xMidYMid meet" height="176" width="128" xmlns="http://www.w3.org/2000/svg" xmlns:xlink="http://www.w3.org/1999/xlink"><g id="tight-bounds" transform="matrix(1,0,0,1,0.11496847246891662,-0.24049999999999727)"><svg viewBox="0 0 68.77006305506217 95.481" height="95.481" width="68.77006305506217"><g><svg viewBox="0 0 68.77006305506217 95.481" height="95.481" width="68.77006305506217"><g><svg viewBox="0 0 68.77006305506217 95.481" height="95.481" width="68.77006305506217"><g id="textblocktransform"><svg viewBox="0 0 68.77006305506217 95.481" height="95.481" width="68.77006305506217" id="textblock"><g><svg viewBox="0 0 68.77006305506217 95.481" height="95.481" width="68.77006305506217"><g><svg viewBox="0 0 68.77006305506217 95.481" height="95.481" width="68.77006305506217"><g><svg xmlns="http://www.w3.org/2000/svg" xml:space="preserve" viewBox="11.799999999999997 9.3 81.10000000000001 112.60000000000001" x="0" y="0" height="95.481" width="68.77006305506217" class="icon-icon-0" data-fill-palette-color="accent" id="icon-0"><path d="M71 121.4c-4 0-7.2-1.5-8.9-2.9l-0.3-0.3L50.2 106l3.8-3.6 11.4 12.1c0.9 0.6 6.3 4 12.9-1 2-1.5 3.1-3.2 3.3-5 0.3-3.2-2.1-6.1-2.2-6.1l-13.6-14 3.8-3.7 13.6 14.1c0.2 0.3 4.1 4.7 3.5 10.2q-0.45 5.1-5.4 8.7c-3.5 2.8-7.1 3.7-10.3 3.7" fill="#e1322b" data-fill-palette-color="accent"></path><path d="M72 109.4c-0.5 0-0.9-0.2-1.3-0.5l-12.4-13c-0.7-0.7-0.6-1.8 0.1-2.5s1.8-0.6 2.5 0.1l12.4 13c0.7 0.7 0.6 1.8-0.1 2.5-0.4 0.2-0.8 0.4-1.2 0.4M30.1 109.7c-0.4 0-0.9-0.2-1.2-0.5-0.7-0.7-0.7-1.8 0-2.5L67.8 67c1.8-1.6 6.5-6 7.7-7.8 1.7-2.5 1.8-6 1.8-9.4C77.2 36.1 66.1 25 52.4 25S27.6 36.1 27.6 49.8c0 5.3 1 9.2 3 12 3 4.1 14.2 14.9 14.3 15 0.7 0.7 0.7 1.8 0 2.5s-1.8 0.7-2.5 0C42 78.8 31 68.2 27.8 63.9c-2.5-3.4-3.7-8-3.7-14 0-15.6 12.7-28.3 28.3-28.3s28.3 12.7 28.3 28.3c0 3.9-0.2 8-2.4 11.3-1.6 2.5-7.5 7.8-8.2 8.4l-38.8 39.6c-0.3 0.3-0.8 0.5-1.2 0.5" fill="#e1322b" data-fill-palette-color="accent"></path><path d="M30.6 121.9c-3 0-6.2-0.9-9.5-3.4-3.2-2.5-5.1-5.4-5.5-8.8-0.7-5.5 2.8-10 2.9-10.2l0.2-0.3 13.1-12.7-5-5.3c-9.5-7.7-15-19.2-15-31.5C11.9 27.5 30 9.3 52.4 9.3s40.5 18.2 40.5 40.5c0 13.6-5.3 25-14.9 32.2l-36.6 35.7c-2.1 2-6.1 4.2-10.8 4.2m-8-19c-0.4 0.6-2.1 3.3-1.7 6.2 0.3 1.9 1.4 3.7 3.5 5.3 7 5.3 13.2-0.2 13.4-0.4l37-36c8.4-6.2 12.9-15.9 12.9-28.1 0-19.4-15.8-35.3-35.3-35.3S17.1 30.4 17.1 49.8c0 10.7 4.8 20.8 13.2 27.5l0.3 0.2 5.1 5.4 12.9-12.5-10.6-11c-1.9-2.9-3-6.2-3-9.7 0-9.5 7.8-17.3 17.3-17.3s17.3 7.8 17.3 17.3c0 3.5-1 6.8-3 9.7l-0.3 0.4-10.6 11z m19.7-46.5l10.1 10.4 10.1-10.4c1.3-1.9 1.9-4.2 1.9-6.5 0-6.6-5.4-12-12-12s-12 5.4-12 12c0 2.3 0.6 4.5 1.9 6.5" fill="#e1322b" data-fill-palette-color="accent"></path></svg></g></svg></g></svg></g></svg></g></svg></g><g></g></svg></g><defs></defs></svg><rect width="68.77006305506217" height="95.481" fill="none" stroke="none" visibility="hidden"></rect></g></svg></g></svg>